<?xml version="1.0" standalone="no"?>
<!DOCTYPE svg PUBLIC "-//W3C//DTD SVG 20010904//EN"
 "http://www.w3.org/TR/2001/REC-SVG-20010904/DTD/svg10.dtd">
<svg version="1.0" xmlns="http://www.w3.org/2000/svg"
 width="500.000000pt" height="500.000000pt" viewBox="0 0 500.000000 500.000000"
 preserveAspectRatio="xMidYMid meet">
<metadata>
Created by potrace 1.11, written by Peter Selinger 2001-2013
</metadata>
<g transform="translate(0.000000,500.000000) scale(0.100000,-0.100000)"
fill="#000000" stroke="none">
<path d="M1758 3725 c-2 -2 -29 -6 -61 -9 -138 -16 -307 -76 -419 -148 -137
-88 -244 -237 -286 -398 -29 -107 -25 -287 8 -385 71 -210 206 -337 540 -506
234 -119 301 -205 271 -351 -21 -98 -98 -171 -216 -203 -86 -24 -264 -28 -363
-10 -103 20 -223 63 -328 119 l-84 45 -51 -92 c-29 -51 -63 -112 -77 -137 -13
-25 -40 -73 -59 -108 -41 -74 -45 -67 77 -128 128 -63 329 -123 475 -141 137
-18 387 -9 528 17 358 67 604 300 643 606 41 328 -74 547 -380 726 -39 23
-129 72 -199 109 -71 36 -148 82 -171 102 -55 46 -85 109 -87 184 -5 173 143
273 400 271 153 -2 281 -37 414 -115 32 -19 59 -33 60 -31 1 1 8 14 16 28 18
31 87 156 121 219 14 25 38 68 54 95 32 57 39 48 -89 111 -183 89 -375 132
-592 132 -78 0 -144 -1 -145 -2z"/>
</g>
</svg>
